HIERARCHY
ROOT Hips
{
	OFFSET -14.64140 90.27770 -84.91600
	CHANNELS 6 Xposition Yposition Zposition Zrotation Xrotation Yrotation
	JOINT Spine
	{
		OFFSET 0.00000 13.20850 -1.60436
		CHANNELS 3 Zrotation Xrotation Yrotation
		JOINT Spine1
		{
			OFFSET 0.00000 8.61716 0.00000
			CHANNELS 3 Zrotation Xrotation Yrotation
			JOINT Spine2
			{
				OFFSET 0.00000 8.61717 0.00000
				CHANNELS 3 Zrotation Xrotation Yrotation
				JOINT Spine3
				{
					OFFSET 0.00000 8.61717 0.00000
					CHANNELS 3 Zrotation Xrotation Yrotation
					JOINT Neck
					{
						OFFSET 0.00000 11.07920 1.10792
						CHANNELS 3 Zrotation Xrotation Yrotation
						JOINT Neck1
						{
							OFFSET 0.00000 7.08032 0.00000
							CHANNELS 3 Zrotation Xrotation Yrotation
							JOINT Head
							{
								OFFSET 0.00000 7.08031 0.00000
								CHANNELS 3 Zrotation Xrotation Yrotation
								End site
								{
									OFFSET 0.00000 0.00000 0.00000
								}
							}
						}
					}
					JOINT RightShoulder
					{
						OFFSET -0.01000 7.91373 5.19711
						CHANNELS 3 Zrotation Xrotation Yrotation
						JOINT RightArm
						{
							OFFSET -18.41580 0.00000 0.00000
							CHANNELS 3 Zrotation Xrotation Yrotation
							JOINT RightForeArm
							{
								OFFSET -29.11090 0.00000 0.00000
								CHANNELS 3 Zrotation Xrotation Yrotation
								JOINT RightHand
								{
									OFFSET -24.65040 0.00000 0.00000
									CHANNELS 3 Zrotation Xrotation Yrotation
									JOINT RightHandThumb1
									{
										OFFSET -5.35114 -0.85590 3.97906
										CHANNELS 3 Zrotation Xrotation Yrotation
										JOINT RightHandThumb2
										{
											OFFSET -4.52789 0.00000 0.00000
											CHANNELS 3 Zrotation Xrotation Yrotation
											JOINT RightHandThumb3
											{
												OFFSET -2.46976 0.00000 0.00000
												CHANNELS 3 Zrotation Xrotation Yrotation
												End site
												{
													OFFSET 0.00000 0.00000 0.00000
												}
											}
										}
									}
									JOINT RightHandIndex1
									{
										OFFSET -14.26970 0.00000 2.88139
										CHANNELS 3 Zrotation Xrotation Yrotation
										JOINT RightHandIndex2
										{
											OFFSET -5.48836 0.00000 0.00000
											CHANNELS 3 Zrotation Xrotation Yrotation
											JOINT RightHandIndex3
											{
												OFFSET -3.01859 0.00000 0.00000
												CHANNELS 3 Zrotation Xrotation Yrotation
												End site
												{
													OFFSET 0.00000 0.00000 0.00000
												}
											}
										}
									}
									JOINT RightHandMiddle1
									{
										OFFSET -14.26970 0.00000 -0.09147
										CHANNELS 3 Zrotation Xrotation Yrotation
										JOINT RightHandMiddle2
										{
											OFFSET -6.17441 0.00000 0.00000
											CHANNELS 3 Zrotation Xrotation Yrotation
											JOINT RightHandMiddle3
											{
												OFFSET -3.56743 0.00000 0.00000
												CHANNELS 3 Zrotation Xrotation Yrotation
												End site
												{
													OFFSET 0.00000 0.00000 0.00000
												}
											}
										}
									}
									JOINT RightHandRing1
									{
										OFFSET -12.69180 0.00000 -3.06433
										CHANNELS 3 Zrotation Xrotation Yrotation
										JOINT RightHandRing2
										{
											OFFSET -5.62556 0.00000 0.00000
											CHANNELS 3 Zrotation Xrotation Yrotation
											JOINT RightHandRing3
											{
												OFFSET -3.56744 0.00000 0.00000
												CHANNELS 3 Zrotation Xrotation Yrotation
												End site
												{
													OFFSET 0.00000 0.00000 0.00000
												}
											}
										}
									}
									JOINT RightHandPinky1
									{
										OFFSET -11.11390 0.00000 -6.03719
										CHANNELS 3 Zrotation Xrotation Yrotation
										JOINT RightHandPinky2
										{
											OFFSET -4.52789 0.00000 0.00000
											CHANNELS 3 Zrotation Xrotation Yrotation
											JOINT RightHandPinky3
											{
												OFFSET -2.46976 0.00000 0.00000
												CHANNELS 3 Zrotation Xrotation Yrotation
												End site
												{
													OFFSET 0.00000 0.00000 0.00000
												}
											}
										}
									}
								}
							}
						}
					}
					JOINT LeftShoulder
					{
						OFFSET 0.01000 7.91373 5.19711
						CHANNELS 3 Zrotation Xrotation Yrotation
						JOINT LeftArm
						{
							OFFSET 18.41580 0.00000 0.00000
							CHANNELS 3 Zrotation Xrotation Yrotation
							JOINT LeftForeArm
							{
								OFFSET 29.11090 0.00000 0.00000
								CHANNELS 3 Zrotation Xrotation Yrotation
								JOINT LeftHand
								{
									OFFSET 24.65040 0.00000 0.00000
									CHANNELS 3 Zrotation Xrotation Yrotation
									JOINT LeftHandThumb1
									{
										OFFSET 5.35114 -0.85590 3.97906
										CHANNELS 3 Zrotation Xrotation Yrotation
										JOINT LeftHandThumb2
										{
											OFFSET 4.52789 0.00000 0.00000
											CHANNELS 3 Zrotation Xrotation Yrotation
											JOINT LeftHandThumb3
											{
												OFFSET 2.46977 0.00000 0.00000
												CHANNELS 3 Zrotation Xrotation Yrotation
												End site
												{
													OFFSET 0.00000 0.00000 0.00000
												}
											}
										}
									}
									JOINT LeftHandIndex1
									{
										OFFSET 14.26970 0.00000 2.88139
										CHANNELS 3 Zrotation Xrotation Yrotation
										JOINT LeftHandIndex2
										{
											OFFSET 5.48836 0.00000 0.00000
											CHANNELS 3 Zrotation Xrotation Yrotation
											JOINT LeftHandIndex3
											{
												OFFSET 3.01859 0.00000 0.00000
												CHANNELS 3 Zrotation Xrotation Yrotation
												End site
												{
													OFFSET 0.00000 0.00000 0.00000
												}
											}
										}
									}
									JOINT LeftHandMiddle1
									{
										OFFSET 14.26970 0.00000 -0.09147
										CHANNELS 3 Zrotation Xrotation Yrotation
										JOINT LeftHandMiddle2
										{
											OFFSET 6.17440 0.00000 0.00000
											CHANNELS 3 Zrotation Xrotation Yrotation
											JOINT LeftHandMiddle3
											{
												OFFSET 3.56744 0.00000 0.00000
												CHANNELS 3 Zrotation Xrotation Yrotation
												End site
												{
													OFFSET 0.00000 0.00000 0.00000
												}
											}
										}
									}
									JOINT LeftHandRing1
									{
										OFFSET 12.69180 0.00000 -3.06433
										CHANNELS 3 Zrotation Xrotation Yrotation
										JOINT LeftHandRing2
										{
											OFFSET 5.62556 0.00000 0.00000
											CHANNELS 3 Zrotation Xrotation Yrotation
											JOINT LeftHandRing3
											{
												OFFSET 3.56744 0.00000 0.00000
												CHANNELS 3 Zrotation Xrotation Yrotation
												End site
												{
													OFFSET 0.00000 0.00000 0.00000
												}
											}
										}
									}
									JOINT LeftHandPinky1
									{
										OFFSET 11.11390 0.00000 -6.03719
										CHANNELS 3 Zrotation Xrotation Yrotation
										JOINT LeftHandPinky2
										{
											OFFSET 4.52789 0.00000 0.00000
											CHANNELS 3 Zrotation Xrotation Yrotation
											JOINT LeftHandPinky3
											{
												OFFSET 2.46976 0.00000 0.00000
												CHANNELS 3 Zrotation Xrotation Yrotation
												End site
												{
													OFFSET 0.00000 0.00000 0.00000
												}
											}
										}
									}
								}
							}
						}
					}
					JOINT pCube4
					{
						OFFSET 0.00000 10.91090 1.10792
						CHANNELS 3 Zrotation Xrotation Yrotation
						End site
						{
							OFFSET 0.00000 0.00000 0.00000
						}
					}
				}
			}
		}
	}
	JOINT RightUpLeg
	{
		OFFSET -9.98441 0.00000 0.00000
		CHANNELS 3 Zrotation Xrotation Yrotation
		JOINT RightLeg
		{
			OFFSET 0.00000 -42.11790 0.00000
			CHANNELS 3 Zrotation Xrotation Yrotation
			JOINT RightFoot
			{
				OFFSET 0.00000 -45.00020 -0.00001
				CHANNELS 3 Zrotation Xrotation Yrotation
				JOINT RightForeFoot
				{
					OFFSET 0.00000 -3.74820 0.00000
					CHANNELS 3 Zrotation Xrotation Yrotation
					JOINT RightToeBase
					{
						OFFSET 0.00000 0.06325 14.43120
						CHANNELS 3 Zrotation Xrotation Yrotation
						End site
						{
							OFFSET 0.00000 0.00000 0.00000
						}
					}
				}
			}
		}
	}
	JOINT LeftUpLeg
	{
		OFFSET 9.98441 0.00000 0.00000
		CHANNELS 3 Zrotation Xrotation Yrotation
		JOINT LeftLeg
		{
			OFFSET 0.00000 -42.11800 0.00000
			CHANNELS 3 Zrotation Xrotation Yrotation
			JOINT LeftFoot
			{
				OFFSET 0.00000 -45.00070 0.00000
				CHANNELS 3 Zrotation Xrotation Yrotation
				JOINT LeftForeFoot
				{
					OFFSET 0.00000 -3.74824 0.00000
					CHANNELS 3 Zrotation Xrotation Yrotation
					JOINT LeftToeBase
					{
						OFFSET 0.00000 0.06325 14.43110
						CHANNELS 3 Zrotation Xrotation Yrotation
						End site
						{
							OFFSET 0.00000 0.00000 0.00000
						}
					}
				}
			}
		}
	}
}
MOTION
Frames: 4
Frame Time: 0.050000
-0.041789805693566724 -0.006890054511971677 0.042303910328453945 0.0025682847121660684 0.029444226826388666 0.0159316466011698 5.804441479703137 2.050468575503411 -2.4459746852727253 -0.641398395932897 3.497381590926607 0.39983900712361203 -0.5451384045596396 -1.4788141602491904 0.3665443702870099 -0.7323188280300829 -0.5484800456730896 -0.29916507688884175 -0.38158813769328603 15.047361167792596 -0.19775392043985962 0.4847608485755179 0.7970222457705092 0.9494173750472437 0.3995561897584827 -14.970325999813662 0.09287263397462865 -12.91542540418881 4.084133448263877 -18.219830770124958 81.08195510717414 -6.626326580602035 22.020082938792974 33.995809850754306 12.3225296456918 95.06488905063729 14.516976315201358 -0.5842825009774171 -6.261182168249593 4.563838947420645 -0.11196337797720776 -1.569626466014604 0.02182845772449269 -0.003551395967167014 -56.249042734649365 -0.04914957796624258 0.04019284820973912 -56.28094695143492 -38.79953984788119 -0.02349973146466911 -0.03375043623758502 0.010818627967479896 -0.03152357406845444 0.007450356355110806 0.033663472201981 -0.026134087477150087 -0.03938803273261613 -36.69010260884192 -0.01591799823925283 -0.04527755519350783 -0.023296849358011008 -0.023948539789506815 0.04086530283533582 -0.04301938888713278 -0.027709472693629524 0.04842364283136775 -19.77946413767524 -0.012276165380980563 0.03844378909829626 0.015130585902433926 0.014683872865643014 0.029599703878230046 0.020918638962445456 0.009466277389467063 0.01599567450036198 24.067188370954113 -0.04532843655098418 -0.011982824784116991 28.8184753675108 -0.01856449789953156 -0.036623985741689465 28.856062701772668 -0.03303850342283633 0.019534358110421143 14.467077113562853 3.1310763296105577 15.135689096351246 -71.73542661099889 6.686209145649695 -29.903175853371778 -39.65046549610583 16.70051111645002 -92.27653590749243 -24.68048829059427 -7.822917760359327 4.9402585685027764 -0.5122327231075895 0.0911759172806107 -8.116865400836755 0.049020492262975134 -0.023268865006309127 44.519117659821056 0.0015605587716823353 -0.031120661696151054 44.58922415901504 12.489180285317271 0.01911176422086938 -0.04831938433681378 -0.008927148478102125 0.0030877727520146766 -0.002390525545987967 0.023103736742890527 0.044607013378781646 -0.010800720196494036 11.113712120186921 -0.01635319233559246 0.04741342009670714 -0.010831695698791576 0.04349788048585799 0.02957597030682424 -0.04085690152789247 -0.0035750716698870052 0.008350128435734424 4.743419967048569 0.03107385902283797 0.002280119723106604 0.03071150694174572 -0.032766636814816785 -0.03649767762197606 0.028344577735841505 -0.03284886015583061 0.03863764674970835 -5.643258356855891 0.017118985512358492 0.013690432333673041 -6.740584484702454 0.037269634446936144 -0.0035421953083371164 -6.753396488980493 -0.017961789927171276 -0.02535757837002357 0.038438391035907175 -0.03305613213834966 -0.0475877518284885 8.015544998851741 3.5019118307287034 -19.228193800150706 -0.015529246443221017 10.396394405747483 0.01584247858996962 -5.615172089397934 -15.670007503417544 3.15427927839516 0.04486261063605526 0.02870865640700262 0.02875468120911772 -0.015529332166098218 4.662493083526481 0.005861542435416503 12.438841637968057 -8.190904409627615 6.928218939666424 0.007306683338486468 46.35133643859963 0.0061858884221198075 -4.3429916615468365 -14.742348163106943 -3.8841452443090447 0.03216294601211908 0.019546285352809525 0.04418967685866364 0.03109571378007163 -10.73204258322168 0.023656356282545275 
0.003697102406111397 -0.03283669129252766 0.043005245447625295 0.025253239275050767 0.02572906825742214 0.024726616994633854 5.770917468070786 1.9775741282806558 -2.389566811785794 -0.656380775649549 3.4950551967365286 0.3250329417579896 -0.5356583555057834 -1.5126909143868597 0.33496481271914585 -0.7731276995757108 -0.5354066558270177 -0.27674376643735976 -0.42729869519960595 15.110204927517824 -0.24369450594948727 0.4279023006479632 0.8728308190470404 0.9884337484769614 0.4012275414664176 -15.033195125173485 0.12411614503145998 -12.93656113712627 4.12788232005416 -18.153138861480233 81.63581559743984 -5.226620933087876 22.46456661179304 35.62024523056405 12.250530683244087 95.53976535947683 15.164892192518803 -0.5627317539825518 -6.944772062476128 4.53877589506976 -0.16235337316610737 -1.630137837751363 -0.0481138314865803 -0.0046857207365747205 -56.27403823714194 0.04994338365068656 -0.007159520019990135 -56.216182168996475 -38.80608499779371 -0.0005762279757439724 0.001678885475737542 0.018296174923498717 -0.018136276939448213 0.04745634643477165 -0.02063602650720832 0.016498453946338358 0.025760049399005287 -36.68167274840913 -0.012679072163251835 -0.00716541151442426 -0.032853031522211355 0.041616381012071144 0.008524998192849126 0.00022982901543259173 0.005311805804310793 -0.0399801021240173 -19.75246098252878 -0.034377867371692857 0.04197791600687035 0.006031688837554291 -0.031740340376327725 -0.013725713814580936 0.023670430185232832 0.02315986352328422 -0.001548728203351385 24.064973534144713 -0.04236766431226003 -0.017814213952115045 28.913536905788142 0.022622684394205197 -0.04229101255457961 28.88961436211709 -0.03559222456171596 0.0042692177092553026 14.506891160026804 3.179459408445974 15.072609945781265 -72.0437543878811 7.700001690436117 -30.16093817088958 -40.39545634060205 16.66775022786119 -92.0970528647175 -25.79360148751878 -8.860494679661944 6.064971023192729 -0.44842438774486393 0.0629745056723867 -8.156820933001718 0.045837624159425154 -0.031324801266309536 44.587757966803885 -0.02301917955922869 0.018148907324099604 44.60870479777749 12.448577306308795 -0.02057520557869628 -0.02040484022719316 -0.0324459069106478 0.014389703713436591 -0.03646608147135338 -0.015334208953951088 -0.02884287791697542 -0.014882019133950172 11.123680262074872 -0.013477377692019026 -0.023757267445346845 -0.03434867144874481 -0.01822016988626447 -0.024909826432587504 -0.01656186860892698 0.029955667426229866 -0.010308045657873514 4.763401239686193 -0.035514861409932805 0.030327836244507172 -0.03907488308798943 -0.0033526438846729167 0.007788394404331577 -0.049669832450530436 0.045419747790879206 0.04873996992049458 -5.596056574028597 -0.01608716645803458 -0.0026717335106494515 -6.762083243218696 -0.03980918992984384 -0.025859360982874256 -6.697460431011368 0.023572813392513024 0.024574731728220126 -0.02439048171399638 -0.0384312657452823 -0.025605956308864922 8.057741768917497 3.5006662791636307 -19.17559955669639 0.026592389034590515 10.415495272419088 0.031084274426989657 -5.644137929685467 -15.66377991036886 3.2103931765953813 0.01122423295322698 0.04927607505592628 -0.006182891072071974 -0.04949524070096958 4.653643430263066 -0.011864107985638807 12.437080502875117 -8.26708810329044 6.919900177835504 -0.003622295210694321 46.406652096558865 0.04752225374456454 -4.373179759179312 -14.779373059913624 -3.824779315201298 -0.039973431910414324 0.018528890778141332 -0.00412005207976269 -0.0017390334432545531 -10.730515825497816 0.03936187123790911 
0.039771854039721284 0.035621226367631154 -0.03710266073068496 0.016721366967015285 0.023566904574604843 -0.03428265208276591 5.929130160350794 1.9462925216929816 -2.4691549165488946 -0.6895020959273188 3.4528038853697125 0.3321750849221477 -0.5292297823121344 -1.5586327255308452 0.359108870560923 -0.7181963682783005 -0.5268123152333091 -0.3201879225057789 -0.35040928057040327 15.005708869994372 -0.28769053052832816 0.37930749828870736 0.8342417292384948 0.9988654789971438 0.47000431839823187 -15.016790439689693 0.050395753700676435 -12.850398141327672 4.1118386010118915 -18.0358307250284 82.0374349577902 -3.115030853650305 22.375001490781063 36.64049083922226 12.071356144072674 95.7600190838838 15.684857385694269 -0.6250787902173924 -7.56720989363067 4.547712565643662 -0.13269898611251327 -1.607090841670898 -0.023217406851981558 -0.01039791304885264 -56.18964891550849 0.03484577500631892 0.038231566218724714 -56.20441348900084 -38.76517275657721 0.013657079903024203 0.008253125616380355 0.04964257987509426 -0.044350271230960414 0.000796120266110481 0.033787751787890945 -0.010323218970635638 0.012260426898159283 -36.694336767424964 0.019245899729720663 -0.02261094216019353 -0.0062884431770791 0.0170330196202433 0.015846028206703396 0.039175222018195795 0.03399737074293536 0.02150042958855233 -19.78981034768148 -0.01742976488034757 -0.018642801907425448 0.006423591329324243 -0.004735866404680569 0.035018618900427456 -0.03187200284522942 0.048589638047632694 0.008482997009263749 24.090453065509895 0.01045129604496577 -0.043681540594678346 28.83867144535321 -0.016611093171000665 -0.02861365542604018 28.900242308329283 0.009178854449169709 -0.038927115215075324 14.529663839293455 3.1290338461466454 14.994706972659202 -72.22016796778277 9.328493744131894 -30.325111508674055 -40.599583807576934 16.47350881253845 -91.55597830341593 -26.771349695222547 -9.812103344015409 7.041993658952982 -0.4868433366812922 0.057726721025613235 -8.110258607385498 0.0007523025065523482 0.002642259417037107 44.53514940438491 0.011063790668963484 -0.01190445474425103 44.567113424849865 12.432273701997179 -0.015385107839562767 0.04745337127165345 -0.034267923419175894 -0.018351982429461296 -0.007304858347105319 -0.022107427119843672 0.03280181246688205 0.04104925131922321 11.146066449480251 -0.00950908747273691 0.03761713291390422 -0.001314399055960352 -0.026284622451680926 -0.010235613152973189 0.04605081940391339 -0.014885805347578721 -0.014421237181534702 4.7639465755864405 -0.02373193482143707 -0.037597993539967 -0.048469881814976835 -0.002550771393951542 0.043195171212276944 0.017928670229261832 -0.04252183917374692 0.01736153898646746 -5.642106480931189 0.03513527465737849 -0.02585450085547847 -6.682766159594926 -0.020744723527972513 -0.013536850201024636 -6.76010869136957 0.04116774103016447 0.04701409373690658 0.022544612224999372 -0.02670340012713011 0.0146990510426897 8.039177684425386 3.505084335502852 -19.234151256346934 -0.0047422522525935665 10.429571129502179 0.03816234382341899 -5.64782026499781 -15.616041913200062 3.1423611492574737 -0.003291328125940983 -0.007062675115290968 -0.045346338626857476 0.02198353380198769 4.717516468309867 0.04485883578795368 12.457227681940424 -8.231063005658317 6.8974722847660015 0.010044014324218356 46.37755885957236 -0.018256570875752866 -4.3694218224991355 -14.757805920518566 -3.837351945646177 0.011270787545189821 0.032447535453195765 -0.0023159864054075404 -0.03301914582025182 -10.764616913137493 -0.021637374471503754 
0.01663984262955997 -0.03138596231960966 0.029226766894340218 0.010428570925727508 -0.03615372301788893 0.04594724052731029 5.909190790025097 1.953849421537314 -2.4310558766286814 -0.6496155864883107 3.44778478419458 0.386480827138975 -0.4981745789389462 -1.5605106912817737 0.3476951495768319 -0.7390632106802196 -0.49170584100006176 -0.2846101605304048 -0.4294164911646087 14.920418822544772 -0.3025776384180879 0.41533283533090337 0.8118761767688243 0.8937722781813608 0.47468408226088643 -15.113638735689639 0.02942800452696081 -12.696638326953293 4.119925463421202 -17.87344446764053 82.37670757735172 -1.435345248097639 22.146639639015945 37.42751329252848 11.813611752470097 95.74677085683257 16.363124889666153 -0.6053656578164235 -7.975829129942795 4.560908283532405 -0.11501696249657761 -1.576528409387696 -0.0390501192474495 5.1168596716360225e-05 -56.258572938694066 -0.03898305563451524 0.004304730030939655 -56.19080766950527 -38.76485660814726 0.002652787200015522 -0.037257513429577935 0.025214280582677082 -0.007959277670142565 -0.011416140865133635 -0.000833898740024167 0.029096295566989477 0.01698330148972573 -36.73387111832064 -0.0396724544227377 0.030008283228925767 0.020258072433983604 8.9127174572805e-05 0.04195906838759412 0.029436520610427536 0.02306701605240532 -0.016230648770233266 -19.780464676991116 -0.02528257474314364 -0.036939529320143834 -0.022330864003596174 0.015768704988718716 0.04456163189404789 0.029344119657862395 0.04262902969166266 0.01907817897880922 24.045129649766967 0.02846216873852196 -0.025093723830320314 28.829868377028127 0.008909697571266023 -0.01710090774746011 28.87118577363076 -0.033610722841627645 -0.047760561637767374 14.472475883405496 3.1998358542709027 14.80160685123599 -72.31166479088905 10.517298491816177 -30.61632286326517 -41.424287076117515 16.174843403324434 -91.52836239476741 -27.61583536244633 -10.420197867240626 7.752027071987583 -0.43017577728845485 0.023579141292382567 -8.151030011441776 0.034698986556904746 -0.036034233714194064 44.54385673388299 -0.0004562834677846581 -0.02793803394688577 44.56036368631418 12.509256748853728 0.019975918252624226 0.04289043509313217 -0.04251529547956234 -0.017989980815364976 -0.04582311798958976 -0.004873776791487091 0.026138036194549366 -0.025489866507772446 11.143916228793195 -0.049528270925347576 0.042920916450229905 0.02310337329453477 0.009757754466306685 0.036869623670948745 -0.010562944901085315 -0.011451001567550639 -0.0048174626439759696 4.769483207760122 0.02921511852388548 0.04026421829545515 0.003752559078532458 0.009742693073966777 -0.02503539954426973 0.018680076422590453 -0.019635992949136215 0.03346243604011603 -5.581901457623119 0.012574514258855678 -0.013674817805267211 -6.705496536755824 -0.01407648403631743 -0.015516696554736078 -6.713868766781962 -0.00946565428859168 0.008754502808163388 -0.015772161358662738 0.0029175182267472894 -0.03366715757941848 8.023733768673916 3.529440657711188 -19.20171154850461 -0.02854634994320887 10.392656712468787 -0.0013665477436156787 -5.646832898406745 -15.641484381164819 3.1644184842150733 0.030570189990253144 0.03980413783876367 0.047280637930257836 -0.007293286183766645 4.695577164122768 -0.032381518814695656 12.50046023066709 -8.225695088523057 6.878339553093588 -0.028501222171180243 46.4112698555487 -0.02791961008806405 -4.3681056601543045 -14.79599409035722 -3.8421237120868033 0.03052338308887873 -0.01542559432039164 0.02997902644018121 0.006008011501086203 -10.78047300977287 0.014523281144665121 
